PathFileType	4	(X/Y/Z)	D:\Share\Shared_Data\Ergonomics\Sit To Stand Pertubation\S3\Perturbed.trc
DataRate	CameraRate	NumFrames	NumMarkers	Units	OrigDataRate	OrigDataStartFrame	OrigNumFrames	
100	100	7	18	m	100	9411	231
Frame#	Time	R_ASIS			R_Pelvis			V_Sacral			L_Pelvis			L_ASIS			Clavical			R_Acromium			L_Acromium			Sternum			Torso			R_Thigh_Med			R_Thigh_Lat			R_Thigh			R_Shank_Med			R_Shank_Lat			R_Shank			R_Heel			R_Toe			
		X1	Y1	Z1	X2	Y2	Z2	X3	Y3	Z3	X4	Y4	Z4	X5	Y5	Z5	X6	Y6	Z6	X7	Y7	Z7	X8	Y8	Z8	X9	Y9	Z9	X10	Y10	Z10	X11	Y11	Z11	X12	Y12	Z12	X13	Y13	Z13	X14	Y14	Z14	X15	Y15	Z15	X16	Y16	Z16	X17	Y17	Z17	X18	Y18	Z18	

9411	94.1	0.036053215	0.64490436	0.14570497	-0.073655083	0.62501343	0.19832619	-0.18008685	0.61829938	0.010391423	-0.063902988	0.64320032	-0.18934756	0.042398727	0.64496851	-0.133896	-0.0035575078	1.0422257	-0.0037420146	-0.055673794	1.0988337	0.17020338	-0.047140697	1.0987102	-0.16379085	0.025188147	0.96998999	0.0043216739	0.0036971574	1.0311716	-0.064341019	0.3866644	0.46662183	0.067852585	0.3727829	0.44744156	0.18658044	0.20436076	0.57732581	0.11045697	0.30716162	0.10740292	0.091876678	0.29323801	0.094956024	0.1738826	0.31687112	0.27236581	0.19613379	0.23306647	0.051630531	0.13032977	0.44979251	0.056204906	0.11401998
9412	94.11	0.036065262	0.64490454	0.14570972	-0.073644539	0.62499664	0.19832803	-0.18011349	0.61827734	0.010401055	-0.063911407	0.64321045	-0.18933665	0.042402054	0.64497083	-0.13389507	-0.0034793882	1.0422655	-0.0037913096	-0.055582642	1.0988834	0.17015402	-0.047108688	1.0987168	-0.163838	0.025292339	0.97001727	0.0042705226	0.0037916977	1.0312122	-0.064415741	0.3866749	0.46660565	0.067778725	0.37281049	0.44743277	0.18652328	0.20437865	0.57731451	0.11042229	0.30714832	0.10739613	0.09187336	0.29323895	0.094937851	0.17387883	0.31688116	0.272358	0.19611693	0.23304457	0.051603561	0.1303287	0.44977905	0.056210453	0.11402095
9413	94.12	0.036084572	0.64490344	0.14571512	-0.073627632	0.62497662	0.19832993	-0.18013638	0.61825562	0.010412792	-0.06392152	0.64322125	-0.1893261	0.042408146	0.64497388	-0.13389967	-0.0033982694	1.0423079	-0.003833169	-0.055486111	1.0989297	0.17010663	-0.04708313	1.0987291	-0.16388376	0.025392082	0.97004181	0.0042288494	0.0038804157	1.031252	-0.064493118	0.38669257	0.46658386	0.067715637	0.3728407	0.44742392	0.18646751	0.20439944	0.57730249	0.11038982	0.30713559	0.10738952	0.091870316	0.29323956	0.094917496	0.17387225	0.31689218	0.27234912	0.19610101	0.23302171	0.051575565	0.13032414	0.44976605	0.056215893	0.11402155
9414	94.13	0.036112152	0.64490039	0.14571976	-0.073602516	0.62495508	0.19833188	-0.1801562	0.61823486	0.010427163	-0.063933762	0.64323267	-0.18931621	0.04241684	0.64497668	-0.13391068	-0.0033147995	1.0423521	-0.0038686683	-0.055384499	1.0989727	0.17006044	-0.047064812	1.0987458	-0.16393144	0.025486877	0.97006409	0.0041946654	0.0039652758	1.031292	-0.064571037	0.38671677	0.46655386	0.067665245	0.37287302	0.44741583	0.18641273	0.20442264	0.57729022	0.11035863	0.30712341	0.10738334	0.091867813	0.29323895	0.094892555	0.17386514	0.31690378	0.27233987	0.19608586	0.23299867	0.05154567	0.13031662	0.44975354	0.056221561	0.11402171
9415	94.14	0.036148438	0.64489539	0.14572244	-0.073568054	0.62493408	0.19833417	-0.18017371	0.61821588	0.010444705	-0.063948349	0.64324347	-0.18930701	0.042427654	0.64497809	-0.13392839	-0.0032297409	1.0423966	-0.0038996935	-0.055278679	1.0990131	0.17001451	-0.047054768	1.0987644	-0.1639846	0.025576683	0.97008514	0.0041644912	0.0040470533	1.0313331	-0.064647301	0.38674692	0.46651239	0.067629829	0.3729068	0.44740878	0.18635886	0.20444777	0.57727783	0.11032787	0.30711188	0.10737778	0.091866013	0.29323642	0.094862175	0.17385828	0.31691565	0.27233096	0.1960713	0.2329762	0.051513405	0.13030681	0.44974173	0.056227448	0.11402143
9416	94.15	0.036192886	0.64488867	0.14572223	-0.073524208	0.6249162	0.19833743	-0.1801897	0.61819922	0.010465664	-0.06396526	0.64325299	-0.18929813	0.042439793	0.64497693	-0.1339525	-0.0031442795	1.0424401	-0.0039287665	-0.055169453	1.0990524	0.16996793	-0.047053566	1.0987832	-0.16404568	0.025661438	0.97010583	0.0041341634	0.0041247325	1.0313752	-0.064720749	0.38678241	0.46645609	0.067611832	0.37294153	0.44740274	0.18630577	0.20447453	0.57726544	0.11029673	0.30710098	0.1073728	0.091864983	0.29323175	0.094827545	0.17385156	0.31692767	0.272323	0.19605716	0.23295486	0.051479183	0.13029555	0.44973083	0.056233334	0.11402078
9417	94.16	0.036243866	0.64488135	0.14571843	-0.073472092	0.62490381	0.19834222	-0.18020471	0.61818573	0.010489897	-0.063984276	0.64326025	-0.18928941	0.042452312	0.64497211	-0.13398193	-0.0030602174	1.0424807	-0.003958617	-0.055056973	1.0990923	0.16991994	-0.04706115	1.0988007	-0.1641154	0.02574074	0.97012695	0.0040998464	0.0041961813	1.0314185	-0.064791489	0.38682248	0.46638284	0.067612335	0.37297617	0.44739688	0.18625352	0.20450259	0.57725323	0.11026446	0.30709088	0.10736832	0.091864708	0.29322461	0.094791634	0.17384575	0.31693948	0.27231647	0.19604318	0.23293521	0.051444038	0.13028351	0.44972113	0.056239006	0.1140199
